<?xml version="1.0" encoding="utf-8"?>
<!-- Generator: Adobe Illustrator 26.2.1, SVG Export Plug-In . SVG Version: 6.00 Build 0)  -->
<svg version="1.1" id="レイヤー_1" xmlns="http://www.w3.org/2000/svg" xmlns:xlink="http://www.w3.org/1999/xlink" x="0px"
	 y="0px" viewBox="0 0 200 200" style="enable-background:new 0 0 200 200;" xml:space="preserve">
<style type="text/css">
	.st0{fill:#000000;}
</style>
<g>
	<path class="st0" d="M12.1,188.2h37.3c2,0,3.7-1.1,4.8-2.6L157,16.6c1.3-2.2-0.2-4.8-2.9-4.8h-35.4c-1.8,0-3.3,0.9-4.2,2.4
		L10.3,185.1C9.7,186.4,10.5,188.2,12.1,188.2z"/>
	<path class="st0" d="M140.8,185.5l48.5-78c1.5-2.4-0.2-5.5-3.1-5.5h-35.1c-1.3,0-2.6,0.7-3.3,1.8L98,183.6c-1.3,2,0.2,4.6,2.6,4.6
		h35.8C138.2,188.2,139.9,187.3,140.8,185.5z"/>
</g>
</svg>
