<?xml version="1.0" encoding="utf-8"?>
<!-- Generator: Adobe Illustrator 26.2.1, SVG Export Plug-In . SVG Version: 6.00 Build 0)  -->
<svg version="1.1" id="レイヤー_1" xmlns="http://www.w3.org/2000/svg" xmlns:xlink="http://www.w3.org/1999/xlink" x="0px"
	 y="0px" viewBox="0 0 200 200" style="enable-background:new 0 0 200 200;" xml:space="preserve">
<style type="text/css">
	.st0{fill:#1769FF;}
</style>
<g id="a">
</g>
<g id="b">
</g>
<path class="st0" d="M63.3,46c5.2,0,9.9,0.5,14.2,1.4c4.3,0.9,7.9,2.4,11,4.5c3,2.1,5.4,4.9,7.1,8.3c1.7,3.5,2.5,7.7,2.5,12.8
	c0,5.5-1.2,10.1-3.7,13.7c-2.5,3.7-6.2,6.7-11,9c6.7,1.9,11.7,5.3,15,10.1c3.3,4.8,5,10.6,5,17.4c0,5.5-1.1,10.2-3.2,14.2
	c-2.1,4-5,7.3-8.6,9.8c-3.6,2.5-7.7,4.4-12.3,5.6c-4.7,1.2-9.4,1.8-14.2,1.8H12.1V46H63.3z M60.3,90.1c4.3,0,7.8-1,10.5-3
	c2.7-2,4.1-5.3,4.1-9.9c0-2.5-0.5-4.6-1.4-6.2c-0.9-1.6-2.1-2.9-3.7-3.8c-1.5-0.9-3.3-1.5-5.3-1.9c-2-0.4-4.1-0.5-6.2-0.5H36v25.4
	L60.3,90.1L60.3,90.1z M61.6,136.2c2.3,0,4.6-0.2,6.7-0.7c2.1-0.5,4-1.2,5.6-2.3c1.6-1.1,2.9-2.5,3.9-4.3c1-1.8,1.4-4.2,1.4-7
	c0-5.6-1.6-9.6-4.7-12c-3.2-2.4-7.3-3.6-12.5-3.6H36v29.9L61.6,136.2L61.6,136.2z M133.3,134c3.3,3.2,7.9,4.7,14,4.7
	c4.4,0,8.1-1.1,11.3-3.3c3.1-2.2,5.1-4.5,5.8-6.9h19c-3,9.4-7.7,16.2-14,20.3c-6.3,4.1-13.9,6.1-22.9,6.1c-6.2,0-11.8-1-16.8-3
	c-5-2-9.2-4.8-12.6-8.5c-3.5-3.7-6.1-8-8-13.1c-1.9-5.1-2.8-10.7-2.8-16.8c0-5.9,1-11.4,2.9-16.5c1.9-5.1,4.7-9.5,8.2-13.2
	c3.6-3.7,7.8-6.6,12.7-8.8c4.9-2.1,10.4-3.2,16.4-3.2c6.7,0,12.5,1.3,17.5,3.9c5,2.6,9.1,6.1,12.3,10.4c3.2,4.4,5.5,9.3,6.9,14.9
	c1.4,5.6,1.9,11.4,1.5,17.5H128C128.3,125.7,130.1,130.8,133.3,134L133.3,134z M157.8,92.5c-2.6-2.8-6.5-4.3-11.8-4.3
	c-3.5,0-6.3,0.6-8.6,1.8c-2.3,1.2-4.1,2.6-5.5,4.3c-1.4,1.7-2.3,3.6-2.9,5.5c-0.6,1.9-0.9,3.7-1,5.2h35.2
	C162.2,99.5,160.4,95.4,157.8,92.5z M124.3,51.6h44v12.2h-44L124.3,51.6z"/>
</svg>
