<?xml version="1.0" encoding="utf-8"?>
<!-- Generator: Adobe Illustrator 26.2.1, SVG Export Plug-In . SVG Version: 6.00 Build 0)  -->
<svg version="1.1" id="レイヤー_1" xmlns="http://www.w3.org/2000/svg" xmlns:xlink="http://www.w3.org/1999/xlink" x="0px"
	 y="0px" viewBox="0 0 200 200" style="enable-background:new 0 0 200 200;" xml:space="preserve">
<style type="text/css">
	.st0{fill-rule:evenodd;clip-rule:evenodd;fill:#191313;}
	.st1{fill:#191313;}
</style>
<g id="a">
</g>
<g id="b">
</g>
<g>
	<path class="st0" d="M100.5,11C50,11,9,52,9,102.5c0,40.4,26.2,74.7,62.6,86.8c4.6,0.8,6.3-2,6.3-4.4c0-2.2-0.1-9.4-0.1-17
		c-25.5,5.5-30.8-10.8-30.8-10.8c-4.2-10.6-10.2-13.4-10.2-13.4c-8.3-5.7,0.6-5.6,0.6-5.6c9.2,0.6,14,9.4,14,9.4
		c8.2,14,21.4,9.9,26.6,7.6c0.8-5.9,3.2-10,5.8-12.2c-20.3-2.3-41.7-10.2-41.7-45.2c0-10,3.6-18.2,9.4-24.6
		c-1-2.3-4.1-11.6,0.9-24.2c0,0,7.7-2.5,25.2,9.4c7.3-2,15.1-3,22.9-3.1c7.8,0,15.6,1.1,22.9,3.1c17.5-11.8,25.1-9.4,25.1-9.4
		c5,12.6,1.8,21.9,0.9,24.2c5.9,6.4,9.4,14.6,9.4,24.6c0,35.2-21.4,42.9-41.8,45.2c3.3,2.8,6.2,8.4,6.2,16.9
		c0,12.2-0.1,22.1-0.1,25.1c0,2.4,1.6,5.3,6.3,4.4c36.3-12.1,62.5-46.4,62.5-86.8C192,52,151,11,100.5,11z"/>
	<path class="st1" d="M43.6,142.4c-0.2,0.5-0.9,0.6-1.6,0.3c-0.7-0.3-1-0.9-0.8-1.4c0.2-0.5,0.9-0.6,1.6-0.3
		C43.5,141.3,43.9,141.9,43.6,142.4L43.6,142.4z M42.5,141.6"/>
	<path class="st1" d="M47.4,146.5c-0.4,0.4-1.3,0.2-1.9-0.4c-0.6-0.6-0.7-1.5-0.3-1.9c0.4-0.4,1.3-0.2,1.9,0.4
		C47.7,145.3,47.8,146.1,47.4,146.5L47.4,146.5z M46.5,145.6"/>
	<path class="st1" d="M51,151.8c-0.6,0.4-1.5,0-2-0.8c-0.6-0.8-0.6-1.8,0-2.2c0.6-0.4,1.5,0,2,0.8C51.5,150.4,51.5,151.4,51,151.8
		L51,151.8z M51,151.8"/>
	<path class="st1" d="M55.9,156.9c-0.5,0.6-1.6,0.4-2.4-0.4c-0.8-0.7-1-1.8-0.5-2.3c0.5-0.6,1.6-0.4,2.4,0.4
		C56.2,155.3,56.4,156.4,55.9,156.9L55.9,156.9z M55.9,156.9"/>
	<path class="st1" d="M62.7,159.9c-0.2,0.7-1.3,1-2.3,0.7c-1-0.3-1.7-1.2-1.5-1.9c0.2-0.7,1.2-1.1,2.3-0.7
		C62.3,158.3,62.9,159.1,62.7,159.9L62.7,159.9z M62.7,159.9"/>
	<path class="st1" d="M70.2,160.4c0,0.8-0.9,1.4-1.9,1.4c-1.1,0-2-0.6-2-1.3c0-0.8,0.9-1.4,2-1.4C69.3,159,70.2,159.7,70.2,160.4
		L70.2,160.4z M70.2,160.4"/>
	<path class="st1" d="M77.2,159.2c0.1,0.7-0.6,1.5-1.7,1.7c-1.1,0.2-2-0.3-2.2-1c-0.1-0.8,0.6-1.5,1.7-1.7
		C76.1,158,77,158.5,77.2,159.2L77.2,159.2z M77.2,159.2"/>
</g>
</svg>
