<?xml version="1.0" encoding="utf-8"?>
<!-- Generator: Adobe Illustrator 26.2.1, SVG Export Plug-In . SVG Version: 6.00 Build 0)  -->
<svg version="1.1" id="レイヤー_1" xmlns="http://www.w3.org/2000/svg" xmlns:xlink="http://www.w3.org/1999/xlink" x="0px"
	 y="0px" viewBox="0 0 200 200" style="enable-background:new 0 0 200 200;" xml:space="preserve">
<style type="text/css">
	.st0{fill-rule:evenodd;clip-rule:evenodd;fill:#41C9B4;}
</style>
<path id="Shape_00000083050143645561809730000007122769911026797220_" class="st0" d="M89.7,90.2H69.3c-2.4,0-3.2-0.1-4.4-0.5
	c-3.3-1-5.9-4.3-5.9-8.3c0-4,2.6-7.3,5.9-8.3c1.2-0.4,2-0.5,4.4-0.5h13.2V59.4c0-2.4,0.1-3.2,0.5-4.4c1-3.4,4.3-5.9,8.3-5.9
	c4,0,7.3,2.6,8.3,5.9c0.4,1.2,0.5,2,0.5,4.4v20.4c0,1.2,0,2.5-0.2,3.6c-0.7,3.1-3.5,5.9-6.5,6.5C92.2,90.2,90.9,90.2,89.7,90.2
	L89.7,90.2z M155.1,165H45.9V68.8c0-1.2,0.4-2.3,1.3-3.1l28.3-28.3c0.9-0.9,1.9-1.3,3.1-1.3h76.5V165z M29.3,52.6
	c-2.9,2.9-4.8,6.5-5.2,10.6c-0.1,0.7-0.1,1.7-0.1,2.7v108.9c0,1.4,0.1,2.2,0.1,2.7c0.5,4.6,4.7,8.8,9.3,9.3c0.6,0.1,1.3,0.1,2.7,0.1
	h128.7c1.4,0,2.2-0.1,2.7-0.1c4.6-0.5,8.8-4.7,9.3-9.3c0.1-0.6,0.1-1.3,0.1-2.7V26.3c0-1.4-0.1-2.2-0.1-2.7
	c-0.5-4.6-4.7-8.8-9.3-9.3c-0.6-0.1-1.3-0.1-2.7-0.1H75.7c-1,0-2,0.1-2.7,0.1c-4.1,0.4-7.7,2.3-10.6,5.2L29.3,52.6z"/>
</svg>
