<?xml version="1.0" encoding="utf-8"?>
<!-- Generator: Adobe Illustrator 26.2.1, SVG Export Plug-In . SVG Version: 6.00 Build 0)  -->
<svg version="1.1" id="レイヤー_1" xmlns="http://www.w3.org/2000/svg" xmlns:xlink="http://www.w3.org/1999/xlink" x="0px"
	 y="0px" viewBox="0 0 200 200" style="enable-background:new 0 0 200 200;" xml:space="preserve">
<style type="text/css">
	.st0{fill:#55C500;}
</style>
<g id="a">
</g>
<g id="b">
</g>
<g>
	<path class="st0" d="M143.9,146.7c-9.7,10.3-22.8,13.7-38.7,15.3c-32.2,3.3-60-11.1-63.4-47c-1.4-15.3,2-29.8,8.8-41.6l-4-15.7
		c-0.6-2.7,1.9-5.3,4.5-4.7L65,56.3c8.2-6.7,18.1-11.1,29-12.2c9.3-0.9,18.4,0.6,26.6,4.2l12.9-7.8c2.4-1.5,5.5,0.2,5.8,3.1
		l0.7,18.5v0c9.9,10.5,16.7,24.9,18.3,41.1c0.9,9.2-0.1,16.2-2.5,23c-1.1,3.1-1.5,5.8,0.6,8.4c2,2.5,5.2,7.5,8.7,6.6
		c5.3-1.2,11-0.9,14.5,1.3c6.7-12.5,10.5-26.8,10.5-42c0-49.4-40.1-89.5-89.5-89.5S11,51.1,11,100.5S51.1,190,100.5,190
		c25.3,0,48.2-10.5,64.5-27.5c-2.9-0.4-5.8-1.5-8.6-3.4C151.1,155.6,146.4,152.2,143.9,146.7z"/>
	<path class="st0" d="M135.7,81l8.4-1l-0.1-1.5l-8.6,1.1c-0.4-1.1-0.8-2.1-1.2-3.2l9.4-3l-0.3-1.9l-10,3.5
		c-6.7-14.1-21.3-22.7-37.8-21c-16.5,1.7-29.5,13.5-33.5,28.7L52,81.1l-0.1,1.9l9.7,1c-0.3,1.1-0.5,1.8-0.6,2.9l-8.4,0.7l0.1,1.5
		l8.2-0.7c-0.1,1.3-0.2,2.1-0.2,3.4L53.1,95l0.4,1.9l7.2-3.4c0,1,0.1,1.5,0.2,2.5c2,21.2,19.7,25.3,40.8,23.2
		c21.1-2.1,37.7-9.8,35.7-30.9c-0.1-1-0.2-1.5-0.4-2.5l7.8,1.7l0.2-1.7l-8.1-1.5C136.3,83,136,82.2,135.7,81z"/>
</g>
</svg>
