<?xml version="1.0" encoding="UTF-8"?><svg id="a" xmlns="http://www.w3.org/2000/svg" viewBox="0 0 192 192"><path d="M176.30843,96.79738c3.66869-14.92471,3.58589-29.98549,1.05583-45.0171-1.68311-10.00003-6.21667-18.83526-12.92375-26.44988-8.75371-9.93786-19.62734-15.18926-33.07194-14.86919-17.06587,.40635-30.55298,8.11327-41.84421,20.29284-2.89247,3.12007-5.35228,6.64173-8.27615,10.31185-2.18621-.91388-4.11389-1.72625-6.04665-2.52594-1.99081-.82348-3.93768-1.79319-5.98796-2.42602-17.23938-5.31992-35.49067-.94687-46.23281,16.26111-17.29585,27.70634-11.22985,59.08883,8.60462,79.93489,15.39656,16.18212,39.79329,16.0416,55.44282,.00603,2.69929-2.76607,5.14545-5.77987,8.05474-9.07092,7.24665,4.05077,13.32327,8.18971,19.96326,10.99004,10.73691,4.52848,21.90934,5.48455,32.39914-.82633,14.15563-8.51644,24.78833-20.03463,28.86305-36.61137Zm-37.23437,18.40291c-3.856,2.62935-8.08583,2.93736-12.4335,1.93212-6.92992-1.60286-12.86189-5.01794-17.49585-10.47902-1.95591-2.30516-3.6035-4.87519-5.59145-7.14927-7.71802-8.83048-18.4654-7.14578-22.03575,3.81286-1.94164,5.9591-4.64204,11.16387-9.10883,15.41987-8.09534,7.71295-18.76278,7.63269-26.56233-.41491-12.97799-13.391-17.36912-34.6231-7.52135-52.76653,6.99035-12.87902,19.48237-14.71693,30.68431-7.49249,2.51452,1.62189,4.56845,3.9445,6.91517,5.8449,8.20335,6.64364,14.78466,5.26821,19.85351-4.19414,1.22142-2.2801,2.1169-4.73372,3.19398-7.09312,5.22444-11.44397,14.49156-17.98261,26.20626-21.457,9.8051-2.90786,17.92376,.14592,24.45574,7.60795,4.9602,5.66663,7.87108,12.34357,8.58131,19.93186,.40222,4.29946,.98208,8.5821,1.49088,12.94881-.64108,5.56988-1.1483,11.1718-1.95338,16.73026-1.74243,12.02858-9.04332,20.24716-18.67872,26.81784Z"/><path d="M99.37007,159.32952c-3.38938,.27026-6.8541,.77304-10.06696,1.83569-6.4449,2.13133-9.45237,7.10422-8.19749,12.66364,1.18795,5.26314,5.19161,8.12437,11.75071,7.67837,8.57877-.58303,17.13661-1.51816,25.68731-2.45044,2.54973-.27819,5.11881-.83394,7.54943-1.64917,4.5066-1.51182,6.81509-5.39478,6.29899-10.02445-.49992-4.48471-3.6874-7.82873-8.52104-8.20209-4.27297-.33022-8.59146-.06915-12.88981-.06915l.00016,.14655c-3.87233,0-7.76338-.236-11.61129,.07105Z"/><path d="M120.6415,65.67532c-5.30136-.05361-11.71233,6.20969-11.90614,11.63207-.20365,5.70279,6.68456,11.1829,13.72914,10.92279,4.90358-.18144,8.35435-4.92626,8.18924-11.26094-.16955-6.50819-4.36147-11.23683-10.01224-11.29393Z"/><path d="M63.49891,76.49502c-5.36845-.24996-11.03715,4.83205-11.36609,10.19004-.34401,5.60351,4.4587,10.22747,10.72152,10.32263,6.00367,.09072,10.74706-3.84141,10.60495-8.79178-.17113-5.96417-4.86124-11.48298-9.96038-11.72089Z"/></svg>